<?xml version="1.0" encoding="UTF-8"?>
<svg id="svg2" xmlns="http://www.w3.org/2000/svg" xmlns:xlink="http://www.w3.org/1999/xlink" xmlns:svg="http://www.w3.org/2000/svg" xmlns:sodipodi="http://sodipodi.sourceforge.net/DTD/sodipodi-0.dtd" xmlns:rdf="http://www.w3.org/1999/02/22-rdf-syntax-ns#" xmlns:osb="http://www.openswatchbook.org/uri/2009/osb" xmlns:inkscape="http://www.inkscape.org/namespaces/inkscape" xmlns:dc="http://purl.org/dc/elements/1.1/" xmlns:cc="http://creativecommons.org/ns#" version="1.1" viewBox="0 0 595.3 841.9">
  <!-- Generator: Adobe Illustrator 29.5.1, SVG Export Plug-In . SVG Version: 2.1.0 Build 141)  -->
  <defs>
    <style>
      .st0, .st1, .st2 {
        fill: none;
      }

      .st3, .st4 {
        fill: aqua;
      }

      .st3, .st4, .st1, .st2, .st5, .st6 {
        stroke: #000;
      }

      .st3, .st4, .st5, .st6 {
        isolation: isolate;
        opacity: .8;
      }

      .st3, .st1, .st2, .st5, .st7, .st8 {
        stroke-miterlimit: 3.2;
      }

      .st3, .st5 {
        stroke-width: 2.1px;
      }

      .st4, .st6 {
        stroke-miterlimit: 3.2;
        stroke-width: 2.1px;
      }

      .st1 {
        stroke-width: .8px;
      }

      .st2 {
        stroke-width: .5px;
      }

      .st5, .st6 {
        fill: #ff0;
      }

      .st9 {
        fill: url(#radial-gradient);
      }

      .st7 {
        fill: url(#linear-gradient);
      }

      .st7, .st8 {
        stroke: #002117;
        stroke-width: 4px;
      }

      .st8 {
        fill: #fff;
      }
    </style>
    <linearGradient id="linear-gradient" x1="314.8" y1="145.6" x2="310.7" y2="-12.9" gradientTransform="translate(-43.6 287.1) rotate(-29.5) scale(.8)" gradientUnits="userSpaceOnUse">
      <stop offset="0" stop-color="#00655a"/>
      <stop offset="1" stop-color="#b1a7ff" stop-opacity="0"/>
    </linearGradient>
    <radialGradient id="radial-gradient" cx="101.3" cy="309.6" fx="101.3" fy="309.6" r="41.2" gradientTransform="translate(-69.9 -234.7) scale(1.6)" gradientUnits="userSpaceOnUse">
      <stop offset="0" stop-color="#fff"/>
      <stop offset="1" stop-color="#fff" stop-opacity="0"/>
    </radialGradient>
  </defs>
  <sodipodi:namedview id="base" bordercolor="#666666" borderopacity="1.0" inkscape:current-layer="layer2" inkscape:cx="433.13943" inkscape:cy="548.19493" inkscape:document-units="px" inkscape:guide-bbox="true" inkscape:pageopacity="0.0" inkscape:pageshadow="2" inkscape:window-height="705" inkscape:window-maximized="1" inkscape:window-width="1366" inkscape:window-x="-8" inkscape:window-y="-8" inkscape:zoom="0.50742985" pagecolor="#ffffff" showgrid="false" showguides="true">
    <inkscape:grid id="grid4268" type="xygrid"/>
  </sodipodi:namedview>
  <g id="layer1" inkscape:groupmode="layer" inkscape:label="Layer 1">
    <path id="rect3336-2" class="st8" d="M87.5,188.1l152.2-85.9c33-18.6,74.9-7,93.5,26h0c18.6,33,7,74.9-26,93.5l-152.2,85.9c-33,18.6-74.9,7-93.5-26h0c-18.6-33-7-74.9,26-93.5h0Z"/>
    <path id="path4202" class="st1" d="M221.1,307.8c-16.2-13.7-25.1-22.2-39-35.6" inkscape:connector-curvature="0" sodipodi:nodetypes="cc"/>
    <path id="path4186-1" class="st1" d="M109.6,152.4c-.2,20.1,0,31.7,0,47.5" inkscape:connector-curvature="0" sodipodi:nodetypes="cc"/>
    <circle id="path4192-5" class="st5" cx="109.6" cy="203.7" r="3.7"/>
    <circle id="path4192-5-9" class="st5" cx="180.3" cy="269.5" r="3.7"/>
    <circle id="path4192-5-5" class="st5" cx="129.9" cy="216.3" r="3.7"/>
    <circle id="path4192-5-5-7" class="st6" cx="98.7" cy="241.4" r="3.7" transform="translate(-148.7 323.8) rotate(-86.2)"/>
    <circle id="path4192-5-5-7-2" class="st5" cx="123.3" cy="240.1" r="3.7"/>
    <circle id="path4192-5-5-7-5" class="st5" cx="90.1" cy="217.3" r="3.7"/>
    <circle id="path4192-5-5-7-9" class="st5" cx="176.5" cy="237.2" r="3.7"/>
    <circle id="path4192-5-5-7-9-5" class="st5" cx="198.3" cy="165" r="3.7"/>
    <circle id="path4192-5-5-7-9-55" class="st5" cx="228.6" cy="165" r="3.7" inkscape:transform-center-x="27.142857" inkscape:transform-center-y="21.428571"/>
    <circle id="path4192-5-5-7-9-55-7" class="st5" cx="227.8" cy="138.4" r="3.7" inkscape:transform-center-x="27.142857" inkscape:transform-center-y="21.428571"/>
    <circle id="path4192-5-5-7-9-55-3" class="st5" cx="255.3" cy="137.5" r="3.7" inkscape:transform-center-x="27.142857" inkscape:transform-center-y="21.428571"/>
    <circle id="path4192-5-5-7-9-55-6" class="st5" cx="281" cy="163.1" r="3.7" inkscape:transform-center-x="27.142857" inkscape:transform-center-y="21.428571"/>
    <circle id="path4192-5-5-7-9-55-9" class="st5" cx="281.7" cy="136.5" r="3.7" inkscape:transform-center-x="27.142857" inkscape:transform-center-y="21.428571"/>
    <circle id="path4192-5-5-7-9-55-4" class="st5" cx="281" cy="186.9" r="3.7" inkscape:transform-center-x="27.142857" inkscape:transform-center-y="21.428571"/>
    <circle id="path4192-5-5-7-9-55-767" class="st5" cx="255.3" cy="186.9" r="3.7" inkscape:transform-center-x="27.142857" inkscape:transform-center-y="21.428571"/>
    <circle id="path4192-5-5-7-9-55-62" class="st5" cx="168.8" cy="200.2" r="3.7" inkscape:transform-center-x="27.142857" inkscape:transform-center-y="21.428571"/>
    <circle id="path4192-5-5-7-9-55-42" class="st5" cx="280" cy="211.6" r="3.7" inkscape:transform-center-x="27.142857" inkscape:transform-center-y="21.428571"/>
    <path id="path4436" class="st1" d="M119,241l-16.8.3" inkscape:connector-curvature="0"/>
    <path id="path4442" class="st1" d="M97.1,238.3l-7.1-17.8" inkscape:connector-curvature="0"/>
    <path id="path4444" class="st1" d="M92.4,214.5l13.8-9.4" inkscape:connector-curvature="0"/>
    <path id="path4446" class="st1" d="M112.9,205l14.4,8.4" inkscape:connector-curvature="0"/>
    <path id="path4448" class="st1" d="M129.4,219.5l-4.7,17.1" inkscape:connector-curvature="0"/>
    <path id="path4450" class="st1" d="M179.6,266.2l-3-25.9" inkscape:connector-curvature="0"/>
    <circle id="path4192-5-5-7-9-55-62-3" class="st5" cx="145.5" cy="261.5" r="3.7" inkscape:transform-center-x="27.142857" inkscape:transform-center-y="21.428571"/>
    <circle id="path4192-5-5-7-9-55-62-0" class="st5" cx="138.1" cy="182.9" r="3.7" inkscape:transform-center-x="27.142857" inkscape:transform-center-y="21.428571"/>
    <path id="path4473" class="st1" d="M111.9,201.7l23.5-17.1" inkscape:connector-curvature="0"/>
    <path id="path4475" class="st1" d="M141.5,185.2l24.2,12.8" inkscape:connector-curvature="0"/>
    <path id="path4477" class="st1" d="M176.1,233.3l-5.7-29.6" inkscape:connector-curvature="0"/>
    <path id="path4479" class="st1" d="M142.1,259.1l-16.5-16.8" inkscape:connector-curvature="0"/>
    <path id="path4481" class="st1" d="M172,197l23.8-29.2" inkscape:connector-curvature="0"/>
    <path id="path4483" class="st1" d="M200.8,161.4l24.2-21.2" inkscape:connector-curvature="0"/>
    <circle id="path4192-5-5-7-9-55-3-7" class="st3" cx="253.3" cy="227.2" r="3.7" inkscape:transform-center-x="27.142857" inkscape:transform-center-y="21.428571"/>
    <circle id="path4192-5-5-7-9-55-3-7-6" class="st3" cx="303" cy="213.1" r="3.7" inkscape:transform-center-x="27.142857" inkscape:transform-center-y="21.428571"/>
    <circle id="path4192-5-5-7-9-55-3-7-9" class="st3" cx="264.6" cy="199.7" r="3.7" inkscape:transform-center-x="27.142857" inkscape:transform-center-y="21.428571"/>
    <circle id="path4192-5-5-7-9-55-3-7-90" class="st3" cx="314.1" cy="176.5" r="3.7" inkscape:transform-center-x="27.142857" inkscape:transform-center-y="21.428571"/>
    <circle id="path4192-5-5-7-9-55-3-7-8" class="st3" cx="164.6" cy="169.5" r="3.7" inkscape:transform-center-x="27.142857" inkscape:transform-center-y="21.428571"/>
    <circle id="path4192-5-5-7-9-55-3-7-4" class="st3" cx="192.8" cy="186.2" r="3.7" inkscape:transform-center-x="27.142857" inkscape:transform-center-y="21.428571"/>
    <circle id="path4192-5-5-7-9-55-3-7-96" class="st3" cx="216.3" cy="178.9" r="3.7" inkscape:transform-center-x="27.142857" inkscape:transform-center-y="21.428571"/>
    <circle id="path4192-5-5-7-9-55-3-7-3" class="st3" cx="209.6" cy="140.6" r="3.7" inkscape:transform-center-x="27.142857" inkscape:transform-center-y="21.428571"/>
    <circle id="path4192-5-5-7-9-55-3-7-0" class="st3" cx="268.1" cy="121.1" r="3.7" inkscape:transform-center-x="27.142857" inkscape:transform-center-y="21.428571"/>
    <circle id="path4192-5-5-7-9-55-3-7-905" class="st3" cx="305.7" cy="145.3" r="3.7" inkscape:transform-center-x="27.142857" inkscape:transform-center-y="21.428571"/>
    <circle id="path4192-5-5-7-9-55-3-7-2" class="st3" cx="266.1" cy="160.7" r="3.7" inkscape:transform-center-x="27.142857" inkscape:transform-center-y="21.428571"/>
    <circle id="path4192-5-5-7-9-55-3-7-96-2" class="st3" cx="226.1" cy="209.2" r="3.7" inkscape:transform-center-x="27.142857" inkscape:transform-center-y="21.428571"/>
    <circle id="path4192-5-5-7-9-55-3-7-21" class="st3" cx="296.6" cy="265.2" r="3.7" inkscape:transform-center-x="27.142857" inkscape:transform-center-y="21.428571"/>
    <circle id="path4192-5-5-7-9-55-3-7-31" class="st3" cx="224.5" cy="310" r="3.7" inkscape:transform-center-x="27.142857" inkscape:transform-center-y="21.428571"/>
    <circle id="path4192-5-5-7-9-55-7-2" class="st5" cx="227.3" cy="93.3" r="3.7" inkscape:transform-center-x="27.142857" inkscape:transform-center-y="21.428571"/>
    <circle id="path4192-5-5-7-9-55-7-3" class="st5" cx="162.8" cy="119.2" r="3.7" inkscape:transform-center-x="27.142857" inkscape:transform-center-y="21.428571"/>
    <circle id="path4192-5-5-7-9-55-7-4" class="st5" cx="109.5" cy="149.2" r="3.7" inkscape:transform-center-x="27.142857" inkscape:transform-center-y="21.428571"/>
  </g>
  <g id="layer2" inkscape:groupmode="layer" inkscape:label="Layer 2">
    <path id="path4487" class="st1" d="M231.6,138.4l20.4-.9" inkscape:connector-curvature="0"/>
    <path id="path4489" class="st1" d="M232.3,163.1l46.8-24.5" inkscape:connector-curvature="0"/>
    <path id="path4491" class="st1" d="M255.3,141.3l.5,41.8" inkscape:connector-curvature="0"/>
    <path id="path4493" class="st1" d="M259.1,186.9l18.5.2" inkscape:connector-curvature="0"/>
    <path id="path4495" class="st1" d="M280.5,190.2l.2,17.8" inkscape:connector-curvature="0"/>
    <path id="path4497" class="st1" d="M281.6,183.1l-.7-16.6" inkscape:connector-curvature="0"/>
    <path id="path4499" class="st1" d="M281,159.1l.5-19.7" inkscape:connector-curvature="0"/>
    <path id="path4501" class="st1" d="M252,185l-20.7-17.6" inkscape:connector-curvature="0"/>
    <path id="path4503" class="st1" d="M230.6,141.1l48,43" inkscape:connector-curvature="0"/>
    <path id="path4545" class="st1" d="M172.6,200.7l49.8,8.6" inkscape:connector-curvature="0"/>
    <path id="path4547" class="st1" d="M253.3,189.5l-23.3,17.8" inkscape:connector-curvature="0"/>
    <circle id="path4192-5-5-7-9-55-3-7-67" class="st3" cx="198.8" cy="251.4" r="3.7" inkscape:transform-center-x="27.142857" inkscape:transform-center-y="21.428571"/>
    <circle id="path4192-5-5-7-9-55-3-7-22" class="st3" cx="151.9" cy="238" r="3.7" inkscape:transform-center-x="27.142857" inkscape:transform-center-y="21.428571"/>
    <circle id="path4192-5-5-7-9-55-3-7-64" class="st3" cx="145.8" cy="211.8" r="3.7" inkscape:transform-center-x="27.142857" inkscape:transform-center-y="21.428571"/>
    <circle id="path4192-5-5-7-9-55-3-7-7" class="st3" cx="115.6" cy="266.8" r="3.7" inkscape:transform-center-x="27.142857" inkscape:transform-center-y="21.428571"/>
    <circle id="path4192-5-5-7-9-55-3-7-36" class="st3" cx="153.1" cy="285" r="3.7" inkscape:transform-center-x="27.142857" inkscape:transform-center-y="21.428571"/>
    <circle id="path4192-5-5-7-9-55-3-7-03" class="st4" cx="83.4" cy="256.7" r="3.7" inkscape:transform-center-x="27.142857" inkscape:transform-center-y="21.428571" transform="translate(-178.2 322.9) rotate(-86.2)"/>
    <path id="path4728" class="st1" d="M86.7,258.1l25.6,7.4" inkscape:connector-curvature="0"/>
    <path id="path4730" class="st1" d="M118.3,263.8l31.3-23.7" inkscape:connector-curvature="0"/>
    <path id="path4732" class="st1" d="M118.8,269.1l32.1,14.7" inkscape:connector-curvature="0"/>
    <path id="path4734" class="st1" d="M155.8,282.1l40.4-29.4-41.3-13.1" inkscape:connector-curvature="0"/>
    <path id="path4736" class="st1" d="M150.8,233.9l-3.8-19.7" inkscape:connector-curvature="0"/>
    <path id="path4738" class="st1" d="M294.7,262.4c-16.1-13.8-26.1-21.6-38.6-32.7" inkscape:connector-curvature="0" sodipodi:nodetypes="cc"/>
    <path id="path4740" class="st1" d="M249.8,228.1l-47.5,21.7" inkscape:connector-curvature="0"/>
    <path id="path4742" class="st1" d="M250.6,225.5l-20.7-13.9" inkscape:connector-curvature="0"/>
    <path id="path4744" class="st2" d="M256.6,226.4l20.8-11.7" inkscape:connector-curvature="0"/>
    <path id="path4746" class="st1" d="M254.3,224.7l10.2-22.3" inkscape:connector-curvature="0"/>
    <path id="path4748" class="st1" d="M264.3,195.9l1.7-32.3" inkscape:connector-curvature="0"/>
    <path id="path4750" class="st1" d="M166.5,171l23.3,12.6" inkscape:connector-curvature="0"/>
    <path id="path4752" class="st1" d="M195.6,184.8l17.6-5.7" inkscape:connector-curvature="0"/>
    <path id="path4754" class="st1" d="M214.6,175l-4.7-31.3" inkscape:connector-curvature="0"/>
    <path id="path4758" class="st1" d="M266.3,157l.9-33.2" inkscape:connector-curvature="0"/>
    <path id="path4762" class="st1" d="M308.1,147.9l5.2,25.5" inkscape:connector-curvature="0"/>
    <path id="path4766" class="st1" d="M269.3,158.7l32.9-11.8" inkscape:connector-curvature="0"/>
    <path id="path4768" class="st1" d="M312.1,179.2l-44,20.8" inkscape:connector-curvature="0"/>
    <path id="path4770" class="st1" d="M216.3,181.5l8.1,24.1" inkscape:connector-curvature="0"/>
    <path id="rect3336" class="st7" d="M87.5,188.3l152.2-85.9c33-18.6,74.9-7,93.5,26h0c18.6,33,7,74.9-26,93.5l-152.2,85.9c-33,18.6-74.9,7-93.5-26h0c-18.6-33-7-74.9,26-93.5h0Z"/>
    <ellipse id="path5987" class="st9" cx="120.1" cy="249.8" rx="70.6" ry="66.4"/>
    <path id="path4256" class="st1" d="M163,122.9l.7,42.8" inkscape:connector-curvature="0"/>
    <path id="path4258" class="st1" d="M227.3,96.2v38.5" inkscape:connector-curvature="0"/>
  </g>
  <rect class="st0" x="40.7" y="28.2" width="309.2" height="309.2"/>
</svg>