<?xml version="1.0" encoding="UTF-8"?>
<svg id="Layer_1" xmlns="http://www.w3.org/2000/svg" version="1.1" viewBox="0 0 612 792">
  <!-- Generator: Adobe Illustrator 29.5.1, SVG Export Plug-In . SVG Version: 2.1.0 Build 141)  -->
  <defs>
    <style>
      .st0, .st1, .st2 {
        fill: none;
      }

      .st1 {
        stroke: #010101;
      }

      .st1, .st3, .st2 {
        stroke-miterlimit: 10;
      }

      .st3 {
        fill: #9fd2ad;
        stroke-width: 4px;
      }

      .st3, .st2 {
        stroke: #9fd2ad;
      }

      .st2 {
        stroke-width: 3px;
      }
    </style>
  </defs>
  <path class="st2" d="M124.6,101.6s-.3-20.5-20.7-18.9c0,0-2.5-12.3-1.9-15.6s4.2-5.3,5.2-8.3.8-8.7.3-10.3c-.9-2.8-3.2-5.6-6.8-7-1.7-.7-8.8-.7-12.5.6-3.6,1.3-6.7,4.4-7.6,6.9-1,2.9-.7,6-.7,7.6s-4.1,4.7-3.3,5.9,2.9,1.3,2.4,2.4c-.6,1,0,1.2.2,1.4.8.8-.9.5.2,1.6.7.7.8,1.1.6,1.9-.3,1.8-.5,3.2,3.1,2.8s6-.4,5.1,3.1c-.8,3.5-.5,7-.5,7-21.2-1-21.2,18.9-21.2,18.9"/>
  <path class="st2" d="M79.3,66.3c22.6-10.7,18.5,36.8,16.7,50.5"/>
  <ellipse class="st3" cx="96.4" cy="116.8" rx="11.2" ry="10.9"/>
  <path class="st1" d="M124.1,101.1s-.3-20.2-20.4-18.6c0,0-2.4-12.1-1.9-15.3s4.1-5.2,5.1-8.1.8-8.6.3-10.1c-.9-2.8-3.1-5.5-6.7-6.9-1.7-.7-8.6-.7-12.3.6-3.6,1.2-6.6,4.4-7.4,6.8-1,2.9-.7,5.9-.7,7.5s-4,4.6-3.3,5.9,2.9,1.3,2.3,2.3c-.6,1,0,1.2.2,1.4.8.8-.9.5.2,1.6.7.7.8,1.1.6,1.9-.3,1.8-.5,3.2,3.1,2.7s5.9-.4,5.1,3c-.8,3.5-.5,6.9-.5,6.9-20.9-1-20.9,18.6-20.9,18.6"/>
  <rect class="st0" x="48.3" y="34.9" width="97.3" height="97.3"/>
</svg>