<?xml version="1.0" encoding="UTF-8"?>
<svg id="svg2" xmlns="http://www.w3.org/2000/svg" xmlns:xlink="http://www.w3.org/1999/xlink" xmlns:svg="http://www.w3.org/2000/svg" xmlns:sodipodi="http://sodipodi.sourceforge.net/DTD/sodipodi-0.dtd" xmlns:rdf="http://www.w3.org/1999/02/22-rdf-syntax-ns#" xmlns:osb="http://www.openswatchbook.org/uri/2009/osb" xmlns:inkscape="http://www.inkscape.org/namespaces/inkscape" xmlns:dc="http://purl.org/dc/elements/1.1/" xmlns:cc="http://creativecommons.org/ns#" version="1.1" viewBox="0 0 595.3 841.9">
  <!-- Generator: Adobe Illustrator 29.5.1, SVG Export Plug-In . SVG Version: 2.1.0 Build 141)  -->
  <defs>
    <style>
      .st0, .st1, .st2 {
        fill: none;
      }

      .st3, .st4 {
        fill: aqua;
      }

      .st3, .st4, .st1, .st2, .st5, .st6 {
        stroke: #000;
      }

      .st3, .st4, .st5, .st6 {
        isolation: isolate;
        opacity: .8;
      }

      .st3, .st1, .st2, .st5, .st7, .st8 {
        stroke-miterlimit: 3.2;
      }

      .st3, .st5 {
        stroke-width: 2.1px;
      }

      .st4, .st6 {
        stroke-miterlimit: 3.2;
        stroke-width: 2.1px;
      }

      .st1 {
        stroke-width: .8px;
      }

      .st2 {
        stroke-width: .5px;
      }

      .st5, .st6 {
        fill: #ff0;
      }

      .st9 {
        fill: url(#radial-gradient);
      }

      .st7 {
        fill: url(#linear-gradient);
      }

      .st7, .st8 {
        stroke: #002117;
        stroke-width: 4px;
      }

      .st8 {
        fill: #fff;
      }
    </style>
    <linearGradient id="linear-gradient" x1="562.4" y1="519.7" x2="558.3" y2="678.2" gradientTransform="translate(280.4 833.7) rotate(-29.5) scale(.8 -.8)" gradientUnits="userSpaceOnUse">
      <stop offset="0" stop-color="#00655a"/>
      <stop offset="1" stop-color="#b1a7ff" stop-opacity="0"/>
    </linearGradient>
    <radialGradient id="radial-gradient" cx="250.4" cy="500.6" fx="250.4" fy="500.6" r="41.2" gradientTransform="translate(-74.1 1047.5) scale(1.6 -1.6)" gradientUnits="userSpaceOnUse">
      <stop offset="0" stop-color="#fff"/>
      <stop offset="1" stop-color="#fff" stop-opacity="0"/>
    </radialGradient>
  </defs>
  <sodipodi:namedview id="base" bordercolor="#666666" borderopacity="1.0" inkscape:current-layer="layer2" inkscape:cx="433.13943" inkscape:cy="548.19493" inkscape:document-units="px" inkscape:guide-bbox="true" inkscape:pageopacity="0.0" inkscape:pageshadow="2" inkscape:window-height="705" inkscape:window-maximized="1" inkscape:window-width="1366" inkscape:window-x="-8" inkscape:window-y="-8" inkscape:zoom="0.50742985" pagecolor="#ffffff" showgrid="false" showguides="true">
    <inkscape:grid id="grid4268" type="xygrid"/>
  </sodipodi:namedview>
  <g id="layer1" inkscape:groupmode="layer" inkscape:label="Layer 1">
    <path id="rect3336-2" class="st8" d="M321.8,173.9l152.2-85.9c33-18.6,74.9-7,93.5,26h0c18.6,33,7,74.9-26,93.5l-152.2,85.9c-33,18.6-74.9,7-93.5-26h0c-18.6-33-7-74.9,26-93.5h0Z"/>
    <path id="path4202" class="st1" d="M455.4,293.6c-16.2-13.7-25.1-22.2-39-35.6" inkscape:connector-curvature="0" sodipodi:nodetypes="cc"/>
    <path id="path4186-1" class="st1" d="M343.9,138.2c-.2,20.1,0,31.7,0,47.5" inkscape:connector-curvature="0" sodipodi:nodetypes="cc"/>
    <circle id="path4192-5" class="st5" cx="343.9" cy="189.5" r="3.7"/>
    <circle id="path4192-5-9" class="st5" cx="414.6" cy="255.3" r="3.7"/>
    <circle id="path4192-5-5" class="st5" cx="364.2" cy="202.1" r="3.7"/>
    <circle id="path4192-5-5-7" class="st6" cx="333" cy="227.2" r="3.7" transform="translate(84.2 544.4) rotate(-86.2)"/>
    <circle id="path4192-5-5-7-2" class="st5" cx="357.6" cy="225.9" r="3.7"/>
    <circle id="path4192-5-5-7-5" class="st5" cx="324.4" cy="203.1" r="3.7"/>
    <circle id="path4192-5-5-7-9" class="st5" cx="410.8" cy="223" r="3.7"/>
    <circle id="path4192-5-5-7-9-5" class="st5" cx="432.6" cy="150.8" r="3.7"/>
    <circle id="path4192-5-5-7-9-55" class="st5" cx="462.9" cy="150.8" r="3.7" inkscape:transform-center-x="27.142857" inkscape:transform-center-y="21.428571"/>
    <circle id="path4192-5-5-7-9-55-7" class="st5" cx="462.1" cy="124.2" r="3.7" inkscape:transform-center-x="27.142857" inkscape:transform-center-y="21.428571"/>
    <circle id="path4192-5-5-7-9-55-3" class="st5" cx="489.6" cy="123.3" r="3.7" inkscape:transform-center-x="27.142857" inkscape:transform-center-y="21.428571"/>
    <circle id="path4192-5-5-7-9-55-6" class="st5" cx="515.3" cy="148.9" r="3.7" inkscape:transform-center-x="27.142857" inkscape:transform-center-y="21.428571"/>
    <circle id="path4192-5-5-7-9-55-9" class="st5" cx="516" cy="122.3" r="3.7" inkscape:transform-center-x="27.142857" inkscape:transform-center-y="21.428571"/>
    <circle id="path4192-5-5-7-9-55-4" class="st5" cx="515.3" cy="172.7" r="3.7" inkscape:transform-center-x="27.142857" inkscape:transform-center-y="21.428571"/>
    <circle id="path4192-5-5-7-9-55-767" class="st5" cx="489.6" cy="172.7" r="3.7" inkscape:transform-center-x="27.142857" inkscape:transform-center-y="21.428571"/>
    <circle id="path4192-5-5-7-9-55-62" class="st5" cx="403.1" cy="186" r="3.7" inkscape:transform-center-x="27.142857" inkscape:transform-center-y="21.428571"/>
    <circle id="path4192-5-5-7-9-55-42" class="st5" cx="514.3" cy="197.4" r="3.7" inkscape:transform-center-x="27.142857" inkscape:transform-center-y="21.428571"/>
    <path id="path4436" class="st1" d="M353.3,226.8l-16.8.3" inkscape:connector-curvature="0"/>
    <path id="path4442" class="st1" d="M331.4,224.1l-7.1-17.8" inkscape:connector-curvature="0"/>
    <path id="path4444" class="st1" d="M326.7,200.3l13.8-9.4" inkscape:connector-curvature="0"/>
    <path id="path4446" class="st1" d="M347.2,190.8l14.4,8.4" inkscape:connector-curvature="0"/>
    <path id="path4448" class="st1" d="M363.7,205.3l-4.7,17.1" inkscape:connector-curvature="0"/>
    <path id="path4450" class="st1" d="M413.9,252l-3-25.9" inkscape:connector-curvature="0"/>
    <circle id="path4192-5-5-7-9-55-62-3" class="st5" cx="379.8" cy="247.3" r="3.7" inkscape:transform-center-x="27.142857" inkscape:transform-center-y="21.428571"/>
    <circle id="path4192-5-5-7-9-55-62-0" class="st5" cx="372.4" cy="168.7" r="3.7" inkscape:transform-center-x="27.142857" inkscape:transform-center-y="21.428571"/>
    <path id="path4473" class="st1" d="M346.2,187.5l23.5-17.1" inkscape:connector-curvature="0"/>
    <path id="path4475" class="st1" d="M375.8,171l24.2,12.8" inkscape:connector-curvature="0"/>
    <path id="path4477" class="st1" d="M410.4,219.1l-5.7-29.6" inkscape:connector-curvature="0"/>
    <path id="path4479" class="st1" d="M376.4,244.9l-16.5-16.8" inkscape:connector-curvature="0"/>
    <path id="path4481" class="st1" d="M406.3,182.8l23.8-29.2" inkscape:connector-curvature="0"/>
    <path id="path4483" class="st1" d="M435.1,147.2l24.2-21.2" inkscape:connector-curvature="0"/>
    <circle id="path4192-5-5-7-9-55-3-7" class="st3" cx="487.6" cy="213" r="3.7" inkscape:transform-center-x="27.142857" inkscape:transform-center-y="21.428571"/>
    <circle id="path4192-5-5-7-9-55-3-7-6" class="st3" cx="537.3" cy="198.9" r="3.7" inkscape:transform-center-x="27.142857" inkscape:transform-center-y="21.428571"/>
    <circle id="path4192-5-5-7-9-55-3-7-9" class="st3" cx="498.9" cy="185.5" r="3.7" inkscape:transform-center-x="27.142857" inkscape:transform-center-y="21.428571"/>
    <circle id="path4192-5-5-7-9-55-3-7-90" class="st3" cx="548.4" cy="162.3" r="3.7" inkscape:transform-center-x="27.142857" inkscape:transform-center-y="21.428571"/>
    <circle id="path4192-5-5-7-9-55-3-7-8" class="st3" cx="398.9" cy="155.3" r="3.7" inkscape:transform-center-x="27.142857" inkscape:transform-center-y="21.428571"/>
    <circle id="path4192-5-5-7-9-55-3-7-4" class="st3" cx="427.1" cy="172" r="3.7" inkscape:transform-center-x="27.142857" inkscape:transform-center-y="21.428571"/>
    <circle id="path4192-5-5-7-9-55-3-7-96" class="st3" cx="450.6" cy="164.7" r="3.7" inkscape:transform-center-x="27.142857" inkscape:transform-center-y="21.428571"/>
    <circle id="path4192-5-5-7-9-55-3-7-3" class="st3" cx="443.9" cy="126.4" r="3.7" inkscape:transform-center-x="27.142857" inkscape:transform-center-y="21.428571"/>
    <circle id="path4192-5-5-7-9-55-3-7-0" class="st3" cx="502.4" cy="106.9" r="3.7" inkscape:transform-center-x="27.142857" inkscape:transform-center-y="21.428571"/>
    <circle id="path4192-5-5-7-9-55-3-7-905" class="st3" cx="540" cy="131.1" r="3.7" inkscape:transform-center-x="27.142857" inkscape:transform-center-y="21.428571"/>
    <circle id="path4192-5-5-7-9-55-3-7-2" class="st3" cx="500.4" cy="146.5" r="3.7" inkscape:transform-center-x="27.142857" inkscape:transform-center-y="21.428571"/>
    <circle id="path4192-5-5-7-9-55-3-7-96-2" class="st3" cx="460.4" cy="195" r="3.7" inkscape:transform-center-x="27.142857" inkscape:transform-center-y="21.428571"/>
    <circle id="path4192-5-5-7-9-55-3-7-21" class="st3" cx="530.9" cy="251" r="3.7" inkscape:transform-center-x="27.142857" inkscape:transform-center-y="21.428571"/>
    <circle id="path4192-5-5-7-9-55-3-7-31" class="st3" cx="458.8" cy="295.8" r="3.7" inkscape:transform-center-x="27.142857" inkscape:transform-center-y="21.428571"/>
    <circle id="path4192-5-5-7-9-55-7-2" class="st5" cx="461.6" cy="79.1" r="3.7" inkscape:transform-center-x="27.142857" inkscape:transform-center-y="21.428571"/>
    <circle id="path4192-5-5-7-9-55-7-3" class="st5" cx="397.1" cy="105" r="3.7" inkscape:transform-center-x="27.142857" inkscape:transform-center-y="21.428571"/>
    <circle id="path4192-5-5-7-9-55-7-4" class="st5" cx="343.8" cy="135" r="3.7" inkscape:transform-center-x="27.142857" inkscape:transform-center-y="21.428571"/>
  </g>
  <g id="layer2" inkscape:groupmode="layer" inkscape:label="Layer 2">
    <path id="path4487" class="st1" d="M465.9,124.2l20.4-.9" inkscape:connector-curvature="0"/>
    <path id="path4489" class="st1" d="M466.6,148.9l46.8-24.5" inkscape:connector-curvature="0"/>
    <path id="path4491" class="st1" d="M489.6,127.1l.5,41.8" inkscape:connector-curvature="0"/>
    <path id="path4493" class="st1" d="M493.4,172.7l18.5.2" inkscape:connector-curvature="0"/>
    <path id="path4495" class="st1" d="M514.8,176l.2,17.8" inkscape:connector-curvature="0"/>
    <path id="path4497" class="st1" d="M515.9,168.9l-.7-16.6" inkscape:connector-curvature="0"/>
    <path id="path4499" class="st1" d="M515.3,144.9l.5-19.7" inkscape:connector-curvature="0"/>
    <path id="path4501" class="st1" d="M486.3,170.8l-20.7-17.6" inkscape:connector-curvature="0"/>
    <path id="path4503" class="st1" d="M464.9,126.9l48,43" inkscape:connector-curvature="0"/>
    <path id="path4545" class="st1" d="M406.9,186.5l49.8,8.6" inkscape:connector-curvature="0"/>
    <path id="path4547" class="st1" d="M487.6,175.3l-23.3,17.8" inkscape:connector-curvature="0"/>
    <circle id="path4192-5-5-7-9-55-3-7-67" class="st3" cx="433.1" cy="237.2" r="3.7" inkscape:transform-center-x="27.142857" inkscape:transform-center-y="21.428571"/>
    <circle id="path4192-5-5-7-9-55-3-7-22" class="st3" cx="386.2" cy="223.8" r="3.7" inkscape:transform-center-x="27.142857" inkscape:transform-center-y="21.428571"/>
    <circle id="path4192-5-5-7-9-55-3-7-64" class="st3" cx="380.1" cy="197.6" r="3.7" inkscape:transform-center-x="27.142857" inkscape:transform-center-y="21.428571"/>
    <circle id="path4192-5-5-7-9-55-3-7-7" class="st3" cx="349.9" cy="252.6" r="3.7" inkscape:transform-center-x="27.142857" inkscape:transform-center-y="21.428571"/>
    <circle id="path4192-5-5-7-9-55-3-7-36" class="st3" cx="387.4" cy="270.8" r="3.7" inkscape:transform-center-x="27.142857" inkscape:transform-center-y="21.428571"/>
    <circle id="path4192-5-5-7-9-55-3-7-03" class="st4" cx="317.7" cy="242.4" r="3.7" inkscape:transform-center-x="27.142857" inkscape:transform-center-y="21.428571" transform="translate(54.8 543.4) rotate(-86.2)"/>
    <path id="path4728" class="st1" d="M321,243.9l25.6,7.4" inkscape:connector-curvature="0"/>
    <path id="path4730" class="st1" d="M352.6,249.6l31.3-23.7" inkscape:connector-curvature="0"/>
    <path id="path4732" class="st1" d="M353.1,254.9l32.1,14.7" inkscape:connector-curvature="0"/>
    <path id="path4734" class="st1" d="M390.1,267.9l40.4-29.4-41.3-13.1" inkscape:connector-curvature="0"/>
    <path id="path4736" class="st1" d="M385.1,219.7l-3.8-19.7" inkscape:connector-curvature="0"/>
    <path id="path4738" class="st1" d="M529,248.2c-16.1-13.8-26.1-21.6-38.6-32.7" inkscape:connector-curvature="0" sodipodi:nodetypes="cc"/>
    <path id="path4740" class="st1" d="M484.1,213.9l-47.5,21.7" inkscape:connector-curvature="0"/>
    <path id="path4742" class="st1" d="M484.9,211.3l-20.7-13.9" inkscape:connector-curvature="0"/>
    <path id="path4744" class="st2" d="M490.9,212.2l20.8-11.7" inkscape:connector-curvature="0"/>
    <path id="path4746" class="st1" d="M488.6,210.5l10.2-22.3" inkscape:connector-curvature="0"/>
    <path id="path4748" class="st1" d="M498.6,181.7l1.7-32.3" inkscape:connector-curvature="0"/>
    <path id="path4750" class="st1" d="M400.8,156.8l23.3,12.6" inkscape:connector-curvature="0"/>
    <path id="path4752" class="st1" d="M429.9,170.6l17.6-5.7" inkscape:connector-curvature="0"/>
    <path id="path4754" class="st1" d="M448.9,160.8l-4.7-31.3" inkscape:connector-curvature="0"/>
    <path id="path4758" class="st1" d="M500.6,142.8l.9-33.2" inkscape:connector-curvature="0"/>
    <path id="path4762" class="st1" d="M542.4,133.7l5.2,25.5" inkscape:connector-curvature="0"/>
    <path id="path4766" class="st1" d="M503.6,144.5l32.9-11.8" inkscape:connector-curvature="0"/>
    <path id="path4768" class="st1" d="M546.4,165l-44,20.8" inkscape:connector-curvature="0"/>
    <path id="path4770" class="st1" d="M450.6,167.3l8.1,24.1" inkscape:connector-curvature="0"/>
    <path id="rect3336" class="st7" d="M321.8,174.1l152.2-85.9c33-18.6,74.9-7,93.5,26h0c18.6,33,7,74.9-26,93.5l-152.2,85.9c-33,18.6-74.9,7-93.5-26h0c-18.6-33-7-74.9,26-93.5h0Z"/>
    <ellipse id="path5987" class="st9" cx="354.4" cy="235.6" rx="70.6" ry="66.4"/>
    <path id="path4256" class="st1" d="M397.3,108.7l.7,42.8" inkscape:connector-curvature="0"/>
    <path id="path4258" class="st1" d="M461.6,82v38.5" inkscape:connector-curvature="0"/>
  </g>
  <rect class="st0" x="10.7" y="14" width="573.5" height="309.2"/>
</svg>