<?xml version="1.0" encoding="UTF-8"?>
<svg id="Layer_1" xmlns="http://www.w3.org/2000/svg" version="1.1" viewBox="0 0 120.4 118.4">
  <!-- Generator: Adobe Illustrator 29.2.1, SVG Export Plug-In . SVG Version: 2.1.0 Build 116)  -->
  <defs>
    <style>
      .st0 {
        fill: #ffd416;
        stroke-width: 3px;
      }

      .st0, .st1 {
        stroke: #007156;
        stroke-miterlimit: 10;
      }

      .st2 {
        fill: #46ad9e;
      }

      .st3 {
        fill: #78b79d;
      }

      .st4 {
        fill: #00a49d;
      }

      .st1 {
        fill: none;
        stroke-width: 4px;
      }
    </style>
  </defs>
  <path class="st4" d="M26.1,32.6h38.1c7,0,12.6,5.6,12.6,12.6h0c0,7-5.6,12.6-12.6,12.6H26.1c-7,0-12.6-5.6-12.6-12.6h0c0-7,5.6-12.6,12.6-12.6Z"/>
  <rect class="st2" x="27.8" y="47.9" width="63.3" height="25.2" rx="12.6" ry="12.6"/>
  <path class="st3" d="M54.3,62.8h38.1c7,0,12.6,5.6,12.6,12.6h0c0,7-5.6,12.6-12.6,12.6h-38.1c-7,0-12.6-5.6-12.6-12.6h0c0-7,5.6-12.6,12.6-12.6Z"/>
  <polygon class="st1" points="5 26.7 60.6 53.5 115.4 29.3 115.4 29.6 115.4 87.2 60.3 113.4 5 86.7 5 26.7"/>
  <line class="st1" x1="60.6" y1="53.5" x2="60.3" y2="113.4"/>
  <line class="st1" x1="5.4" y1="26.6" x2="60.5" y2="5"/>
  <line class="st1" x1="60.5" y1="5" x2="115.4" y2="29.3"/>
  <ellipse class="st0" cx="5.5" cy="26.5" rx="3.5" ry="3.3"/>
  <circle class="st0" cx="60.5" cy="5" r="3.5"/>
  <circle class="st0" cx="115.1" cy="29.1" r="3.5"/>
  <circle class="st0" cx="60.6" cy="53.3" r="3.5"/>
  <circle class="st0" cx="115.4" cy="87.1" r="3.5"/>
  <ellipse class="st0" cx="60.3" cy="113.4" rx="3.7" ry="3.5"/>
  <circle class="st0" cx="5" cy="87.1" r="3.5"/>
</svg>